<?xml version="1.0" encoding="utf-8"?>
<!-- Svg Vector Icons : http://www.onlinewebfonts.com/icon -->
<!DOCTYPE svg PUBLIC "-//W3C//DTD SVG 1.1//EN" "http://www.w3.org/Graphics/SVG/1.1/DTD/svg11.dtd">
<svg version="1.1" xmlns="http://www.w3.org/2000/svg" xmlns:xlink="http://www.w3.org/1999/xlink" x="0px" y="0px" viewBox="0 0 1000 1000" enable-background="new 0 0 1000 1000" xml:space="preserve">
<metadata> Svg Vector Icons : http://www.onlinewebfonts.com/icon </metadata>
<g><path d="M283.8,442.3"/><path d="M654.9,356.8"/><path d="M249,411.4"/><path d="M211.8,528.8h259.4v259.4c0,15.9,13,28.8,28.8,28.8c15.9,0,28.8-13,28.8-28.8V528.8h259.4c15.9,0,28.8-13,28.8-28.8c0-15.9-13-28.8-28.8-28.8H528.8V211.8c0-15.9-13-28.8-28.8-28.8c-15.9,0-28.8,13-28.8,28.8v259.4H211.8c-15.9,0-28.8,13-28.8,28.8C182.9,515.9,195.9,528.8,211.8,528.8z"/><path d="M932.4,10H67.6C35.9,10,10,35.9,10,67.6v864.7c0,31.8,25.9,57.6,57.6,57.6h864.7c31.8,0,57.6-25.9,57.6-57.6V67.6C990,35.9,964.1,10,932.4,10z M932.3,932.4H67.6V67.6h864.7L932.3,932.4z"/></g>
</svg>